<?xml version="1.0" encoding="utf-8"?>
<!DOCTYPE svg PUBLIC "-//W3C//DTD SVG 20010904//EN" "http://www.w3.org/TR/2001/REC-SVG-20010904/DTD/svg10.dtd">
<svg version="1.0" xmlns="http://www.w3.org/2000/svg" width="169px" height="169px" viewBox="0 0 169 169" preserveAspectRatio="xMidYMid meet">
 <g fill="#e26cb8">
  <path d="M94.2 159.1 c-1.8 -1.1 -1.2 -5.1 1 -6.4 2.1 -1.4 4.8 0.7 4.8 3.8 0 3 -3.1 4.4 -5.8 2.6z"/>
  <path d="M36.3 153.5 c-1.9 -2.1 -1.6 -4.3 0.9 -5.6 1.8 -1 2.4 -0.8 4 1.1 3.2 4 -1.6 8.4 -4.9 4.5z"/>
  <path d="M101 88 c-2.8 -2.8 -1.1 -6.3 2.8 -5.8 2.1 0.2 2.8 0.9 3 3 0.5 3.9 -3 5.6 -5.8 2.8z"/>
  <path d="M51.1 85.6 c0.7 -1.5 1.5 -2.3 1.7 -1.6 0.3 0.7 -0.3 1.9 -1.3 2.8 -1.5 1.6 -1.6 1.5 -0.4 -1.2z"/>
  <path d="M44.2 84.3 c-1.4 -2.6 0.3 -5.3 3.4 -5.3 1.4 0 2.7 0.7 3.1 1.6 1.5 3.9 -4.6 7.3 -6.5 3.7z"/>
  <path d="M27.1 81.6 c-1.9 -2.2 -0.4 -5.6 2.3 -5.6 3.2 0 5.3 2.6 3.9 4.8 -1.4 2.3 -4.7 2.7 -6.2 0.8z"/>
  <path d="M163.2 73.8 c-1.9 -1.9 -1.4 -5.6 0.8 -6.3 4.3 -1.4 6.9 4.4 3.1 6.5 -2.4 1.3 -2.4 1.3 -3.9 -0.2z"/>
  <path d="M72.5 64.2 c-3 -2.2 -4.7 -9.4 -2.5 -10.7 0.6 -0.3 1 0.1 1 0.9 0 1 0.6 1.3 1.5 1 0.8 -0.4 2.2 -0.1 3 0.6 1.9 1.6 1.9 4.9 0.1 5.6 -0.8 0.3 -1.2 1.2 -0.9 2 0.6 1.5 -0.6 1.8 -2.2 0.6z"/>
  <path d="M50.3 60.5 c-1.9 -2.1 -1.6 -4.3 0.6 -5.5 2.5 -1.3 4.8 -0.4 5.6 2.1 1.3 3.9 -3.5 6.5 -6.2 3.4z"/>
  <path d="M145.4 18.5 c-0.8 -3.2 0.6 -4.8 3.7 -4.3 1.9 0.2 2.4 0.9 2.4 3.3 0 2.5 -0.4 3.1 -2.7 3.3 -2.2 0.3 -2.9 -0.2 -3.4 -2.3z"/>
 </g>
 <g fill="#5bfe67">
  <path d="M51.7 145.7 c-9.6 -17.7 -13.6 -24.1 -16.3 -26.2 l-3.5 -2.7 -15.7 1.9 c-13.5 1.6 -17.8 1.6 -16 -0.2 0.2 -0.3 7 -1.2 15.1 -2.2 8.1 -0.9 15.1 -1.9 15.6 -2.2 0.4 -0.3 2.6 -10.8 4.7 -23.2 l3.8 -22.6 -8.9 -9.7 -8.9 -9.7 -4.5 0.5 c-15.4 1.8 -17.1 1.8 -17.1 0.3 0 -1.1 2.3 -1.6 10.7 -2.2 10.7 -0.7 10.8 -0.7 17.8 -5.5 l7 -4.7 4.3 -14.9 c2.3 -8.2 4.2 -15.4 4.2 -16 0 -1.7 -25 -4.9 -28.6 -3.7 -2.4 0.8 -3.7 3 -9.1 14.9 -4.2 9.3 -6.3 13 -6.3 11.1 0 -1.5 2.2 -7.7 5 -13.9 4.5 -10 4.8 -11.3 3.5 -12.8 -1.3 -1.5 -0.8 -1.6 6.8 -1.8 4.5 -0.1 13.1 0.5 19.1 1.4 10 1.4 11 1.4 11.8 0 1.3 -2.2 3 -2 2.6 0.4 -0.2 1.6 2.8 3.8 16.3 11.8 l16.7 9.9 0.6 -8.6 c0.9 -11.4 1.6 -15.1 2.8 -15.1 0.9 0 0.7 5.9 -0.6 21.7 -0.1 1.4 1.2 2.1 5.6 3.2 8.9 2.3 9.6 1.6 14.1 -12.8 2 -6.6 4.2 -12.1 4.7 -12.1 1.4 0 1.4 0.3 -2.5 12.5 -1.9 6 -3.3 11 -3.2 11.1 0.1 0.1 5.9 0.5 12.8 0.9 l12.6 0.7 0.7 -4.8 c0.4 -2.7 0.9 -6.1 1.2 -7.5 0.5 -2.5 -0.1 -3 -9.3 -7.7 -6.1 -3.2 -8.9 -5.1 -7.5 -5.2 1.2 0 5.9 1.8 10.4 4.1 l8.1 4.1 4.1 -4.1 c6.2 -6.1 7.9 -5 1.9 1.2 -4.9 5 -5.2 5.5 -6.1 12.7 -0.5 4.1 -0.8 7.7 -0.7 8 0.2 0.3 6.8 3.9 14.8 8 14.1 7.3 14.5 7.5 18.6 6.4 5.4 -1.5 5.8 0.8 0.4 2.4 -3.3 1 -5.1 3.1 -13.2 14.5 l-9.5 13.2 6.9 20 c3.7 11 7 20.5 7.4 21.2 0.4 0.8 2.4 0.1 6.4 -2.3 4 -2.4 5.7 -2.9 5.7 -1.9 0 0.8 -2.6 2.9 -5.7 4.8 -5.1 2.9 -6.4 4.4 -11.2 12.6 l-5.4 9.3 2.7 10.7 c1.5 5.8 3.4 13 4.3 15.9 l1.5 5.3 6.4 -3.6 c7.3 -3.9 7.4 -4 7.4 -2.2 0 1.2 -14.7 9.3 -15.5 8.6 -0.2 -0.2 -2.3 -7.8 -4.6 -16.9 -2.3 -9.1 -4.4 -16.6 -4.5 -16.8 -0.3 -0.4 -57.6 4.7 -58.1 5.2 -0.2 0.1 -4.3 6.6 -9.1 14.2 -6 9.6 -9.3 14 -10.8 14.2 -1.7 0.2 -4 -3.3 -14.7 -23.1z m23.8 7.3 l8.8 -14.1 -1.9 -3.5 c-1.1 -2 -2.4 -4 -3.1 -4.5 -1.1 -1 -35.4 -7.2 -36 -6.5 -0.4 0.4 22.5 42.6 23.1 42.6 0.2 0 4.3 -6.3 9.1 -14z m39.4 -18 c12.4 -1.1 23.4 -2.1 24.4 -2.3 1.2 -0.1 -2.9 -4.2 -12.3 -12.2 -13.5 -11.4 -14.5 -12.1 -22.8 -14.7 -4.8 -1.5 -9.4 -2.8 -10.2 -2.8 -1.7 0 -11.4 16.9 -12.5 21.8 -0.5 2.5 -0.1 4.2 2 7.7 3.1 5.4 0.8 5.2 31.4 2.5z m35.1 -11.2 l5.3 -9.2 -6.4 -18.6 c-9.4 -27.6 -6.9 -24.2 -20.6 -28 -6.5 -1.8 -12.4 -3.5 -13 -3.7 -1 -0.4 -1.3 1.8 -1.3 9.1 0 5.7 -0.4 9.6 -1 9.6 -0.6 0 -1 -3.8 -1 -9.4 l0 -9.3 -3.1 -0.7 c-5.5 -1.1 -14.7 3.8 -21.3 11.3 -7.5 8.5 -7.6 11 -0.3 18.9 4.8 5.4 5.8 6.1 13.9 8.5 4.8 1.5 9.2 2.7 9.7 2.7 0.6 0 1.1 -2 1.1 -4.5 0 -6.4 1.8 -5.6 2.2 0.9 l0.3 5.4 15 13.1 c8.3 7.1 15.1 13 15.1 13 0.1 0.1 2.5 -4 5.4 -9.1z m-71 1.1 c0 -1.2 -1.3 -3.6 -2.8 -5.4 -2.5 -2.8 -3 -3 -3.9 -1.6 -0.9 1.3 -1.5 1.4 -2.9 0.5 -2.6 -1.5 -3.1 -5.4 -0.7 -5.4 1.3 0 0.7 -1.1 -2.5 -4.2 l-4.2 -4.3 -6.8 2.4 c-12 4.3 -19.5 7.6 -19.8 8.6 -0.2 0.6 1 2 2.7 3.3 2.3 1.9 6.4 3 19.2 5.2 20.6 3.6 21.7 3.6 21.7 0.9z m6.7 -14.4 l5.2 -9.6 -5.2 -5.5 -5.2 -5.6 -8.3 6.8 -8.3 6.7 3.8 3.9 c3.3 3.4 3.8 3.6 4.4 2 1.1 -2.9 4 -3.6 6.2 -1.4 1.6 1.6 1.7 2.3 0.8 4.1 -0.7 1.1 -1.8 2.1 -2.7 2.1 -1.1 0 -1 0.7 0.8 3 1.2 1.7 2.4 3 2.7 3 0.3 0 2.9 -4.3 5.8 -9.5z m-38.5 -17.8 l10.7 -19.2 -6.7 -1.7 c-3.7 -1 -7.4 -1.7 -8.1 -1.5 -1.1 0.1 -2.4 5.7 -5.1 21.4 -2.2 12.8 -3.2 20.9 -2.6 20.7 0.6 -0.3 5.9 -9.1 11.8 -19.7z m4.1 13.2 c10 -3.7 10.9 -4.2 20 -11.4 7 -5.5 7.7 -6.3 7.4 -9.3 -0.2 -3.2 -0.6 -3.5 -9.1 -7.3 -4.9 -2.2 -9.1 -3.8 -9.2 -3.6 -0.2 0.2 -4.9 8.3 -10.4 18.1 -6.1 11 -9.3 17.5 -8.2 17.1 0.9 -0.4 5.2 -2 9.5 -3.6z m24.1 -34.8 c-2.4 -5.8 -3.3 -7.1 -5.4 -7.3 -2.9 -0.3 -3.8 -3 -2.1 -6.2 1 -1.7 0.8 -3.1 -1.1 -7.4 l-2.4 -5.3 -1.5 13.5 -1.5 13.5 8.1 3.4 c4.4 2 8.2 3.4 8.4 3.2 0.2 -0.3 -0.9 -3.6 -2.5 -7.4z m6.9 -15 c-5.3 -5.8 -10.4 -11.4 -11.2 -12.3 -1.1 -1.2 -2.1 -1.4 -3 -0.9 -1.2 0.8 -1 1.9 0.9 6.8 1.3 3.2 2.9 6.5 3.7 7.4 0.7 0.8 1.3 2.2 1.3 3.1 0 1.4 4.2 12.5 6.3 16.3 0.9 1.8 1.4 1.5 6.3 -3.9 l5.4 -5.9 -9.7 -10.6z m-23.3 14.7 c0 -0.2 0.7 -5.9 1.5 -12.8 0.8 -6.9 1.5 -12.8 1.5 -13.1 0 -0.7 -21.2 -4.9 -24.4 -4.9 -0.9 0 -4.4 1.8 -7.7 4.1 l-6 4 8.7 9.5 c5.3 5.7 9.7 9.7 11.3 10 1.4 0.4 4.9 1.2 7.6 1.9 5 1.3 7.5 1.7 7.5 1.3z m90.9 -14.4 c5 -6.9 9.1 -12.7 9.1 -12.9 0 -0.6 -28.1 -14.7 -28.5 -14.3 -0.4 0.5 -13.6 31.1 -13.8 32.1 -0.2 0.7 19.8 7.1 23.5 7.6 0.3 0.1 4.7 -5.5 9.7 -12.5z m-50.6 6.9 c2.6 -0.9 4.7 -2.2 4.7 -2.8 0 -1.4 -7.6 -27.2 -8.9 -30.1 -1 -2.3 -9.8 -5.1 -12.5 -4.1 -0.7 0.3 -3.6 3.6 -6.3 7.4 l-5.1 7 11 12.1 c6.1 6.7 11.3 12.2 11.7 12.2 0.3 0 2.7 -0.8 5.4 -1.7z m21.5 -17.9 c4 -9.2 7.1 -16.9 6.8 -17.2 -0.3 -0.3 -6.3 -0.8 -13.3 -1.3 -9.1 -0.5 -13.4 -0.4 -14.9 0.4 l-2.2 1.2 2 6.5 c8.7 28.6 7.4 26.1 13.3 26.9 0.6 0 4.3 -7.4 8.3 -16.5z m-54.3 -4.6 c3.6 -1.6 13.1 -14.6 11.7 -16 -1.6 -1.6 -30.6 -18.8 -31 -18.3 -0.9 0.9 -9.1 30 -8.6 30.5 0.5 0.4 21 4.7 24.1 4.9 0.7 0.1 2.4 -0.4 3.8 -1.1z"/>
 </g>
 <g fill="#b8b330">
  <path d="M90.6 121.8 c-2.7 -3.9 1.8 -8 5.2 -4.6 1.8 1.8 1.4 4.6 -0.7 5.8 -2.6 1.4 -2.8 1.3 -4.5 -1.2z"/>
  <path d="M66.6 119.7 c-2.1 -1.6 -1.8 -4.5 0.6 -6.1 1.4 -0.8 2.2 -0.6 4 1.1 2.1 2.2 2.1 2.3 0.3 4.3 -2.1 2.4 -2.5 2.4 -4.9 0.7z"/>
  <path d="M73.4 115.7 c-1.1 -1.2 -2.6 -3.1 -3.4 -4.2 -1.4 -1.8 -1.4 -1.9 0.3 -0.6 1.3 1 1.7 1.1 1.7 0.1 0 -0.9 0.7 -0.7 2 0.5 2.4 2.2 1.8 3.4 -0.7 1.4 -1 -0.7 -0.7 -0.1 0.6 1.4 1.4 1.5 2.2 2.9 1.9 3.2 -0.2 0.3 -1.3 -0.5 -2.4 -1.8z"/>
 </g>
 <g fill="#885db2">
  <path d="M45.2 84.8 c-3 -3 0.1 -7.3 3.6 -5.1 2.3 1.4 2.5 2.9 0.7 4.7 -2 1.9 -2.7 2 -4.3 0.4z"/>
  <path d="M28.2 82.1 c-0.8 -0.4 -1.2 -1.9 -1 -3.2 0.4 -3.4 5.2 -3.4 5.6 0 0.5 3.2 -2 4.9 -4.6 3.2z"/>
 </g>
 <g fill="#ff7121">
  <path d="M62.4 138.6 c-1.2 -3.1 0 -5.1 3.1 -5.1 2.7 0 3 0.3 3 3 0 2.5 -0.4 3 -2.8 3.3 -1.7 0.2 -2.9 -0.2 -3.3 -1.2z"/>
  <path d="M119.4 87.6 c-1.2 -3.1 0 -5.1 3.1 -5.1 2.7 0 3 0.3 3 3 0 2.5 -0.4 3 -2.8 3.3 -1.7 0.2 -2.9 -0.2 -3.3 -1.2z"/>
  <path d="M131 50 c-1.6 -1.6 -1.8 -2.5 -1 -4 1.2 -2.2 4 -2.6 5.8 -0.8 1.8 1.8 1.4 4.6 -0.8 5.8 -1.5 0.8 -2.4 0.6 -4 -1z"/>
  <path d="M69.3 8.3 c-2.2 -0.8 -1.6 -6.1 0.7 -6.8 3.9 -1.2 6.6 3.5 3.8 6.3 -1.3 1.3 -2.4 1.4 -4.5 0.5z"/>
 </g>
 <g fill="#00b7c7">
  <path d="M84.7 49.3 c-1.4 -1.4 -0.6 -5.3 1.3 -6.3 2.8 -1.5 6.5 2.2 5 5 -1 1.9 -4.9 2.7 -6.3 1.3z"/>
  <path d="M21 17.5 c-1.4 -1.7 -0.5 -5.1 1.6 -5.9 2.2 -0.8 5.4 1.1 5.4 3.2 0 3.8 -4.6 5.6 -7 2.7z"/>
  <path d="M95.1 9.6 c-1.9 -2.2 -0.4 -5.6 2.3 -5.6 3.2 0 5.3 2.6 3.9 4.8 -1.4 2.3 -4.7 2.7 -6.2 0.8z"/>
 </g>
 <g fill="#747474">
  <path d="M55.1 90.1 c-1.3 -2.4 0.8 -5.5 3.4 -5 2.8 0.6 4.2 3.4 2.6 5.3 -1.8 2.2 -4.8 2 -6 -0.3z"/>
  <path d="M109.5 40 c-1.3 -4.1 4.3 -7 6.4 -3.3 1.3 2.5 -0.5 5.3 -3.4 5.3 -1.5 0 -2.6 -0.7 -3 -2z"/>
  <path d="M56.1 27.2 c-2 -3.8 3.1 -7.1 5.8 -3.8 0.9 1.1 1 2 0.1 3.5 -1.3 2.6 -4.6 2.7 -5.9 0.3z"/>
  <path d="M111.4 14.6 c-1.1 -2.8 0.1 -5.1 2.5 -5.1 3.2 0 4.9 2.8 3.2 4.9 -1.7 2 -5 2.1 -5.7 0.2z"/>
 </g>
 <g fill="#25fe35">
  <path d="M61.6 162.8 c-1.9 -3.5 -7.6 -14 -12.8 -23.4 -6.1 -11.2 -10.5 -18.2 -12.9 -20.2 l-3.6 -3.2 -15.9 2 c-8.7 1.1 -16 1.8 -16.2 1.5 -0.5 -0.5 3.9 -1.2 18.7 -3 6.8 -0.8 12.6 -1.7 12.9 -2 0.4 -0.4 8.2 -43.8 8.2 -45.7 0 -0.4 -4.2 -5.3 -9.2 -10.8 -5.8 -6.3 -9.8 -9.8 -10.8 -9.6 -2.1 0.6 -20.7 1.7 -19.5 1.1 0.6 -0.2 5.6 -0.8 11.1 -1.4 9.8 -0.9 10.5 -1.1 17.3 -5.6 3.9 -2.6 7.3 -5.5 7.5 -6.4 0.3 -0.9 2.3 -8 4.6 -15.9 2.3 -7.9 4 -14.6 3.7 -14.8 -0.3 -0.3 -6.4 -1.4 -13.7 -2.5 -18 -2.8 -17.3 -3.2 -24.6 13.3 -3.2 7.2 -6 12.6 -6.1 12.1 -0.2 -0.6 2.1 -6.3 5 -12.9 5 -10.9 5.3 -12.1 3.9 -13.6 -1.6 -1.9 -0.3 -2.5 1.4 -0.8 0.8 0.8 1.9 0.7 3.8 -0.1 2.1 -1 5 -0.9 14.9 0.5 6.7 1 13.2 2 14.5 2.3 1.8 0.4 2.5 0 2.9 -1.6 0.7 -2.8 2.1 -2.7 1.6 0.1 -0.3 2 1.7 3.5 16.2 12.1 9.1 5.4 16.9 9.6 17.4 9.3 0.5 -0.3 1.2 -5.5 1.6 -11.6 0.4 -6.1 1.2 -11.3 1.7 -11.6 0.6 -0.4 0.8 0.1 0.5 1.2 -0.3 1.1 -0.9 6.5 -1.3 12.1 l-0.6 10.2 4.3 1.1 c2.4 0.6 5.1 1.3 6 1.6 0.9 0.2 2.8 -0.1 4.2 -0.7 2 -0.9 3.1 -3.1 6.1 -12.4 2 -6.2 3.6 -11.8 3.6 -12.4 0 -0.6 0.4 -1.1 0.9 -1.1 0.9 0 -1.7 9.7 -5.3 19.8 -0.8 2.3 -1.2 4.3 -0.8 4.6 0.4 0.2 6.5 0.5 13.7 0.7 l13 0.4 1.1 -7.8 1 -7.9 -8.9 -4.4 c-4.9 -2.5 -8.7 -4.8 -8.4 -5.1 0.3 -0.2 4.5 1.6 9.4 4.1 l8.8 4.6 5 -4.8 5 -4.7 -4.8 5.1 c-4.1 4.3 -4.9 5.9 -5.7 11 -1.9 11.7 -2.9 10.5 14.1 18.9 14.1 7.1 15.2 7.5 18.6 6.6 5 -1.4 5.5 -0.5 0.6 0.9 -3.9 1.2 -4.8 2.3 -20.1 24 l-3.2 4.6 7.2 21 c3.9 11.5 7.3 21.1 7.5 21.4 0.3 0.3 3.1 -1 6.4 -2.8 3.2 -1.8 5.9 -2.9 5.9 -2.5 0 0.4 -2.7 2.3 -5.9 4 -5.4 3 -6.4 4.1 -11.5 12.9 l-5.6 9.6 4.1 15.9 c2.3 8.7 4.6 15.9 5.1 15.9 0.5 0 3.6 -1.4 6.9 -3.1 3.4 -1.7 6.3 -2.8 6.5 -2.6 0.4 0.3 -12 7.3 -14.2 8 -0.4 0.1 -2.6 -7.2 -5 -16.2 -2.3 -9 -4.6 -16.7 -5.1 -17.1 -0.4 -0.4 -12.5 0.3 -26.8 1.6 -14.3 1.3 -27.2 2.3 -28.6 2.4 -2.2 0 -3.8 2.1 -12 15 -5.2 8.3 -9.9 15 -10.6 15 -0.7 0 -2.8 -2.8 -4.7 -6.2z m14.8 -10.2 l8.6 -13.8 -2.8 -4.7 -2.9 -4.6 -18.4 -3.1 c-10.1 -1.8 -18.5 -3.1 -18.7 -2.9 -0.3 0.3 19.3 37.2 22.5 42.4 0.8 1.3 1.8 1.9 2.3 1.5 0.4 -0.5 4.6 -7.1 9.4 -14.8z m39.4 -17 c13.8 -1.2 25.4 -2.5 25.6 -2.7 0.2 -0.2 -6.1 -6 -14.1 -12.8 -14.5 -12.4 -14.6 -12.5 -24.1 -15.3 -5.2 -1.5 -9.8 -2.8 -10.1 -2.8 -1.2 0 -11.4 19.2 -12.2 23 -0.7 2.9 -0.3 4.2 2.3 8.2 2.1 3.3 3.7 4.8 5.2 4.8 1.1 -0.1 13.5 -1.1 27.4 -2.4z m34.9 -11.9 l5.2 -9.2 -7.4 -21.4 c-4.1 -11.7 -7.6 -21.6 -7.9 -21.8 -0.8 -0.8 -23.9 -7.3 -25.8 -7.3 -1.8 0 -1.8 1.2 -1.2 21.8 0.4 11.9 0.7 21.7 0.8 21.8 0 0 6.8 5.8 14.9 12.7 8.1 7 15.1 12.7 15.5 12.7 0.4 0 3 -4.2 5.9 -9.3z m-71.1 1.8 c0.5 -2.1 -0.7 -3.9 -8.1 -12 -4.8 -5.2 -9.1 -9.5 -9.5 -9.5 -0.6 0 -15.9 5.8 -25.9 9.8 -0.9 0.3 -0.4 -0.9 1.1 -2.9 1.3 -1.9 6.7 -11 11.8 -20.2 5.1 -9.2 9.5 -16.5 9.7 -16.3 0.3 0.3 -3.8 8.2 -9.1 17.7 -5.3 9.4 -9.6 17.5 -9.6 17.9 0 0.4 5 -1.1 11.2 -3.4 9.5 -3.6 12.5 -5.4 20 -11.5 7.5 -6.1 8.8 -7.6 8.8 -10.1 0 -2.7 -0.6 -3.3 -6.5 -5.9 -3.5 -1.6 -9 -3.9 -12.2 -5 -6 -2.1 -19.4 -5.4 -19.9 -4.9 -0.7 0.8 -7.4 41.7 -7.2 44.1 0.1 1.5 1.6 4 3.3 5.6 2.7 2.6 4.6 3.2 20.5 5.9 21.9 3.7 20.8 3.7 21.6 0.7z m7.9 -17.2 l3.8 -7.1 -4.1 -5 c-6.5 -7.8 -5.8 -7.7 -14.7 -0.6 -4.4 3.5 -8.1 6.8 -8.3 7.4 -0.2 0.6 3.3 4.9 7.9 9.5 l8.2 8.5 1.7 -2.8 c0.9 -1.5 3.4 -5.9 5.5 -9.9z m25.1 -7.5 c-0.3 -2.9 -0.6 -12.6 -0.6 -21.4 l0 -16.2 -2.9 -0.4 c-1.6 -0.2 -5.6 0.6 -9.2 2.1 -5.3 2 -7.4 3.6 -12.6 9.5 -8.2 9.3 -8.3 11 -0.5 19.6 5.6 6.1 6.3 6.6 14.8 9.2 12.3 3.7 11.8 3.8 11 -2.4z m-36.6 -29.7 c-2.3 -5.5 -3.7 -7.8 -4.7 -7.4 -3.3 1.3 -5.9 -4.7 -2.8 -6.5 1.4 -0.7 1.2 -1.7 -1.3 -7.3 l-2.9 -6.4 -0.6 3.5 c-1.6 9.3 -2.8 24.3 -2 25.1 1.2 1.2 16.7 7.9 17.2 7.4 0.2 -0.3 -1.1 -4 -2.9 -8.4z m11 1.9 c4.6 -5.3 5.1 -6.2 3.9 -7.8 -4.4 -5.6 -20.6 -22.8 -21.7 -23 -3 -0.8 -3.2 1.5 -0.6 7.9 1.4 3.5 3.2 6.8 4 7.2 0.8 0.4 1.4 1.9 1.4 3.3 0 2.7 6.1 18.4 7.2 18.4 0.3 0 2.9 -2.7 5.8 -6z m-25.7 -15.5 c0.9 -7.9 1.1 -13.2 0.6 -13.6 -0.6 -0.3 -6.4 -1.6 -13 -2.8 l-12.1 -2.2 -6.4 4.2 c-3.5 2.3 -6.4 4.6 -6.4 5.1 0 0.5 3.8 5.1 8.5 10.1 l8.5 9.2 8.7 2.1 c4.9 1.1 9.1 1.8 9.4 1.5 0.4 -0.3 1.4 -6.4 2.2 -13.6z m88.3 0.3 c4.8 -6.8 9.1 -12.8 9.6 -13.5 0.9 -1.1 -4.8 -4.3 -28.3 -16.1 -0.6 -0.3 -14.9 32 -14.9 33.6 0 0.5 5.5 2.5 12.3 4.5 6.7 1.9 12.3 3.5 12.4 3.6 0.1 0 4.1 -5.4 8.9 -12.1z m-48.8 5.5 c2.3 -0.8 4.2 -1.8 4.2 -2.1 0 -0.4 -2.2 -7.9 -4.8 -16.7 -4.7 -15.9 -4.8 -16 -8.2 -17.1 -9.6 -3.2 -9.3 -3.3 -15.4 5 -3.1 4.2 -5.6 7.9 -5.6 8.2 0 0.3 5 6.2 11.2 13 8.1 9.1 11.6 12.3 12.7 11.8 0.9 -0.3 3.5 -1.3 5.9 -2.1z m21.2 -19.1 c3.9 -9 7 -16.6 6.7 -16.8 -0.2 -0.2 -6.6 -0.7 -14.3 -1 -19.7 -0.9 -18.9 -1.9 -12.8 18.7 4.8 15.9 5 16.4 7.9 17 1.7 0.3 3.5 0.1 4.2 -0.5 0.6 -0.6 4.4 -8.5 8.3 -17.4z m-54.7 -2.9 c0.9 -0.3 4.2 -4 7.2 -8.1 4.3 -6 5.2 -7.9 4.2 -8.8 -0.6 -0.6 -8.1 -5.2 -16.5 -10.2 -11.6 -7 -15.4 -8.8 -15.8 -7.7 -1 2.5 -9.2 31 -9.1 31.2 0.7 0.7 25.5 5 26.7 4.6 0.8 -0.3 2.3 -0.8 3.3 -1z"/>
  <path d="M73.2 112.8 c-1.6 -1.6 -1.5 -3.8 0.1 -3.8 1.7 0 3.7 2 3.7 3.7 0 1.6 -2.2 1.7 -3.8 0.1z"/>
 </g>
 <g fill="#d71d27">
  <path d="M94 158.5 c-2 -2.5 -0.8 -5 2.5 -5 2.1 0 3.1 0.5 3.3 1.8 0.4 2.1 -1.4 4.7 -3.3 4.7 -0.7 0 -1.8 -0.7 -2.5 -1.5z"/>
  <path d="M36.1 153.6 c-1.9 -2.3 -0.4 -5.6 2.5 -5.6 2.8 0 4.2 2.5 2.7 4.9 -1.4 2.2 -3.7 2.5 -5.2 0.7z"/>
  <path d="M100.3 87.4 c-1.5 -3.9 3.8 -6.7 6 -3.2 0.8 1.2 0.7 2.1 -0.2 3.2 -1.7 2.1 -5 2 -5.8 0z"/>
  <path d="M49.9 60.4 c-1.7 -2.1 0 -4.9 3.2 -4.9 1.8 0 2.5 0.6 2.7 2.4 0.6 3.8 -3.4 5.5 -5.9 2.5z"/>
 </g>
 <g fill="#006da8">
  <path d="M22.2 18.1 c-2.1 -1.3 -1.1 -5.5 1.5 -5.9 3 -0.4 4.9 3.1 2.7 5.2 -1.8 1.8 -2.4 1.9 -4.2 0.7z"/>
  <path d="M95.1 9.2 c-1.3 -2.5 0.8 -5.6 3.5 -5 2.9 0.5 2.7 6.2 -0.3 6.6 -1.3 0.2 -2.6 -0.4 -3.2 -1.6z"/>
 </g>
 <g fill="#844b43">
  <path d="M56.2 91.1 c-2 -1.2 -1.1 -5.5 1.2 -5.9 2.7 -0.6 4.8 2.5 3.5 4.9 -1 2 -2.6 2.4 -4.7 1z"/>
  <path d="M110.1 40.7 c-1.4 -1.7 -0.6 -4.3 1.6 -5.1 2.2 -0.9 4.5 1.3 4.1 3.8 -0.4 2.5 -4 3.3 -5.7 1.3z"/>
 </g>
 <g fill="#219530">
  <path d="M73 112.5 c-0.6 -0.8 -0.9 -2.3 -0.5 -3.5 1 -3.1 5.9 -2.4 6.3 0.9 0.6 3.7 -3.4 5.5 -5.8 2.6z"/>
  <path d="M68 62.5 c-1.3 -1.6 -1 -4.7 0.6 -5.2 1 -0.3 3.4 3.7 3.4 5.7 0 1.5 -2.6 1.2 -4 -0.5z"/>
 </g>
</svg>